<svg width="246" height="205" viewBox="0 0 246 205" fill="none" xmlns="http://www.w3.org/2000/svg">
<g clip-path="url(#clip0_144_1698)">
<path d="M61.3865 157.495H237.946C238.957 157.495 239.958 157.297 240.892 156.911C241.826 156.526 242.675 155.961 243.39 155.249C244.105 154.537 244.672 153.691 245.059 152.761C245.446 151.83 245.645 150.833 245.645 149.825V48.1185C245.646 47.4388 245.556 46.762 245.375 46.1065C244.932 44.4816 243.965 43.0471 242.622 42.0246C241.279 41.002 239.636 40.4482 237.946 40.4486H168.984C167.375 43.1481 166.384 46.1677 166.08 49.2925C165.225 58.3769 170.454 66.7752 175.132 74.622C179.811 82.4687 184.273 91.592 181.795 100.379C180.12 106.306 175.579 110.595 169.946 113.166C164.533 115.552 158.578 116.456 152.698 115.783C149.166 115.338 145.686 114.547 142.311 113.421C137.884 111.988 133.561 110.132 129.244 108.254C129.241 108.254 129.241 108.254 129.237 108.251C129.162 108.219 129.084 108.184 129.01 108.152C125.67 106.698 122.333 105.242 118.946 103.958C114.978 102.412 110.86 101.282 106.657 100.584C100.271 99.5872 93.8315 99.9479 88.1341 102.833C78.8479 107.533 73.8711 117.689 69.977 127.314C66.0438 137.046 62.5189 147.102 61.3865 157.495Z" fill="#F3FFF4"/>
<path d="M0.35498 118.587V149.825C0.354926 150.833 0.554037 151.83 0.940953 152.761C1.32787 153.691 1.89501 154.537 2.60998 155.249C3.32496 155.961 4.17376 156.526 5.10793 156.912C6.0421 157.297 7.04334 157.495 8.05446 157.495H37.4041C37.9117 152.782 37.4857 148.086 35.6221 143.704C31.5611 134.15 21.7353 128.499 12.3675 123.962C8.43074 122.056 4.42658 120.217 0.35498 118.587Z" fill="#F3FFF4"/>
<path d="M31.1128 150.281C31.1128 152.316 31.924 154.267 33.3679 155.705C34.8118 157.143 36.7702 157.951 38.8123 157.951H68.1619C68.6695 153.238 68.2435 148.542 66.3799 144.16C65.4251 141.914 63.195 139.426 60.2889 136.912C48.8876 127.05 31.1128 135.24 31.1128 150.281Z" fill="#F3FFF4"/>
<path d="M0 149.825V48.1185C0.00242024 45.9913 0.851787 43.9519 2.36176 42.4477C3.87174 40.9435 5.91901 40.0974 8.05444 40.095H237.946C240.081 40.0974 242.128 40.9435 243.638 42.4477C245.148 43.9519 245.998 45.9913 246 48.1185V149.825C245.998 151.952 245.148 153.992 243.638 155.496C242.128 157 240.081 157.846 237.946 157.849H8.05444C5.91898 157.846 3.87169 157 2.36171 155.496C0.85173 153.992 0.00238359 151.952 0 149.825ZM8.05444 40.8023C6.10723 40.8044 4.24039 41.5759 2.86351 42.9475C1.48662 44.3191 0.712132 46.1788 0.709957 48.1185V149.825C0.712096 151.765 1.48656 153.625 2.86345 154.996C4.24034 156.368 6.1072 157.139 8.05444 157.142H237.946C239.893 157.139 241.76 156.368 243.137 154.996C244.513 153.625 245.288 151.765 245.29 149.825V48.1185C245.288 46.1788 244.513 44.3191 243.136 42.9475C241.76 41.5759 239.893 40.8044 237.946 40.8023H8.05444Z" fill="#F3FFF4"/>
<path d="M76.0752 157.244H86.5151C88.3007 151.255 90.8778 144.907 93.2313 139.122C97.7466 128.03 103.515 116.326 114.282 110.91C118.878 108.597 123.891 107.694 129.01 107.743C136.081 107.81 143.351 109.701 150.007 112.207C152.729 113.229 155.427 114.354 158.114 115.503C168.238 119.837 178.252 124.557 189.139 125.833C202.916 127.446 219.114 121.306 222.876 108.08C225.748 97.9547 220.576 87.4424 215.152 78.3992C209.728 69.3559 203.665 59.6801 204.655 49.2099C204.659 49.1748 204.663 49.1361 204.67 49.101C205.042 45.3403 207.297 42.6376 210.445 40.9049H196.736C196.555 50.6721 202.227 59.2935 207.332 67.806C212.756 76.8457 217.928 87.3615 215.056 97.4873C211.294 110.709 180.136 95.2103 166.359 93.5936C162.469 93.1402 168.649 94.7534 164.939 93.5936C159.121 91.7765 158.476 108.442 152.814 105.996C149.289 104.471 145.761 102.956 142.186 101.61C140.706 101.051 139.194 100.527 137.664 100.042C137.66 100.042 137.66 100.042 137.657 100.039C127.384 96.7984 116.149 95.5366 106.657 100.222C106.593 100.253 106.525 100.285 106.461 100.317C95.6948 105.729 89.9264 117.433 85.4111 128.525C81.6803 137.695 77.914 147.572 76.0752 157.244Z" fill="#F3FFF4"/>
<path d="M76.1888 84.3458H8.28445C7.72804 84.3458 7.19442 84.5659 6.80099 84.9579C6.40755 85.3498 6.18652 85.8814 6.18652 86.4356C6.18652 86.9899 6.40755 87.5215 6.80099 87.9134C7.19442 88.3053 7.72804 88.5255 8.28445 88.5255H76.1888C76.7452 88.5255 77.2788 88.3053 77.6723 87.9134C78.0657 87.5215 78.2867 86.9899 78.2867 86.4356C78.2867 85.8814 78.0657 85.3498 77.6723 84.9579C77.2788 84.5659 76.7452 84.3458 76.1888 84.3458Z" fill="#F3FFF4"/>
<path d="M29.3857 72.6276H8.33182C7.77542 72.6276 7.2418 72.8478 6.84836 73.2397C6.45492 73.6317 6.23389 74.1632 6.23389 74.7175C6.23389 75.2718 6.45492 75.8033 6.84836 76.1953C7.2418 76.5872 7.77542 76.8074 8.33182 76.8074H29.3857C29.9421 76.8074 30.4758 76.5872 30.8692 76.1953C31.2626 75.8033 31.4837 75.2718 31.4837 74.7175C31.4837 74.1632 31.2626 73.6317 30.8692 73.2397C30.4758 72.8478 29.9421 72.6276 29.3857 72.6276Z" fill="#F3FFF4"/>
<path d="M110.575 194.962L106.272 194.926L104.367 178.005L110.718 178.058L110.575 194.962Z" fill="#FFF1B7"/>
<path d="M96.7901 201.779C96.7863 202.287 96.985 202.776 97.3426 203.138C97.7002 203.501 98.1875 203.707 98.6976 203.712L107.254 203.783L108.752 200.759L109.302 203.799L112.53 203.828L111.715 192.985L110.592 192.911L106.01 192.596L104.532 192.498L104.506 195.566L97.6332 200.21C97.3757 200.384 97.1645 200.617 97.0177 200.891C96.8708 201.164 96.7927 201.469 96.7901 201.779Z" fill="#295F2D"/>
<path d="M154.237 194.962L149.934 194.926L148.029 178.005L154.38 178.058L154.237 194.962Z" fill="#FFF1B7"/>
<path d="M140.453 201.779C140.449 202.287 140.648 202.776 141.005 203.138C141.363 203.501 141.85 203.707 142.36 203.712L150.917 203.783L152.414 200.759L152.965 203.799L156.193 203.828L155.378 192.985L154.255 192.911L149.673 192.596L148.195 192.498L148.169 195.566L141.296 200.21C141.038 200.384 140.827 200.617 140.68 200.891C140.533 201.164 140.455 201.469 140.453 201.779Z" fill="#295F2D"/>
<path d="M105.266 59.4549L124.635 44.6062C125.453 43.9747 125.99 43.0478 126.129 42.0256C126.268 41.0035 125.997 39.9679 125.376 39.1425C125.055 38.7155 124.65 38.3581 124.186 38.0921C123.721 37.8262 123.207 37.6572 122.675 37.5956C122.143 37.5339 121.604 37.5809 121.091 37.7336C120.577 37.8862 120.101 38.1415 119.69 38.4836L100.045 54.5222L87.6962 63.7666C87.0851 63.4127 86.3794 63.2548 85.675 63.3143C84.9707 63.3738 84.3018 63.6478 83.7593 64.0992C83.2167 64.5506 82.8268 65.1574 82.6425 65.8372C82.4582 66.517 82.4885 67.2369 82.7292 67.899C82.9699 68.561 83.4093 69.1333 83.9879 69.5379C84.5664 69.9425 85.2559 70.1599 85.9628 70.1605C86.6697 70.1612 87.3596 69.945 87.9389 69.5414C88.5182 69.1379 88.9587 68.5664 89.2006 67.9048L105.266 59.4549Z" fill="#FFF1B7"/>
<path d="M121.052 62.8683L120.199 81.8625L149.195 85.3577C146.914 77.7255 143.172 67.1247 144.887 61.8131L121.052 62.8683Z" fill="#A0616A"/>
<path d="M137.535 28.0468H128.603L124.767 34.5855L122.939 34.485C119.377 35.8517 117.957 37.2661 115.991 41.0346L109.083 46.8137L114.407 53.1788C118.085 52.5786 119.411 49.7347 118.243 44.5117C118.243 44.5117 114.216 51.5039 120.017 54.9438C120.017 54.9438 118.982 61.4249 120.017 61.3552C121.052 61.2855 123.435 59.9665 121.052 61.2855C118.669 62.6046 119.077 62.6615 119.155 63.0889C120.442 70.1523 121.507 75.4566 121.507 75.4566L146.71 77.9319C146.71 77.9319 145.258 62.7483 145.337 61.885C145.416 61.0217 144.886 63.1322 145.416 61.0217C145.946 58.9113 146.74 59.7027 145.946 58.9113C145.151 58.1198 151.407 57.4383 148.965 53.635L157.13 51.5133L152.566 40.7085C152.566 37.0603 146.684 34.1029 143.022 34.1029H142.553L137.535 28.0468Z" fill="#E6E6E6"/>
<path d="M147.04 75.0628C137.18 78.4415 128.303 77.6996 120.797 71.2131C120.797 71.2131 118.685 78.9926 116.546 77.9318C114.407 76.8709 115.464 79.8394 114.877 80.9277C114.253 82.0833 114.977 84.0324 112.918 84.6951C110.858 85.3577 111.631 87.3053 110.965 88.7385C106.298 98.7687 100.969 112.966 97.3685 130.974C93.6689 149.478 102.693 180.48 102.693 180.48L111.213 179.773L113.343 139.461L123.084 122.422C123.084 122.422 127.87 119.646 124.866 118.238C121.862 116.829 123.874 115.085 126.063 115.427C128.252 115.769 130.736 104.453 130.736 104.453C127.616 112.265 147.065 181.187 147.065 181.187L155.23 180.48L150.615 84.2969L147.04 75.0628Z" fill="#295F2D"/>
<path d="M142.836 11.6312C143.804 14.0334 146.536 18.7575 146.906 21.3345L146.739 21.1714C146.421 21.712 146.06 22.2262 145.66 22.7089C144.941 21.9573 144.074 21.3631 143.112 20.964C143.637 22.0372 143.941 23.2043 144.007 24.3964C142.228 25.939 137.687 25.0083 135.418 25.8304C131.766 27.1502 127.889 27.62 124.062 28.0101C122.703 28.1495 121.182 28.2341 120.23 27.4343C119.278 26.6345 119.845 25.1535 119.333 24.0333C115.684 16.0542 119.051 13.1753 121.912 9.55728C122.542 8.76108 122.539 7.5729 123.305 6.81323C124.368 5.76024 125.997 5.43635 127.5 5.17691C127.109 5.19739 126.72 5.11746 126.37 4.94481C126.02 4.77216 125.72 4.5126 125.5 4.19113C125.307 3.86724 125.207 3.49646 125.212 3.11968C125.216 2.7429 125.326 2.37476 125.527 2.05587C126.064 1.16859 127.181 0.65263 128.258 0.523733C129.319 0.451954 130.385 0.543227 131.418 0.794351C132.087 0.882044 132.735 1.08841 133.332 1.40369C133.613 1.55322 133.842 1.78474 133.988 2.0673C134.133 2.34986 134.189 2.66999 134.147 2.9849C134.057 3.2757 133.903 3.54257 133.695 3.7656C133.487 3.98862 133.232 4.16206 132.947 4.27296C132.514 4.45559 132.058 4.57996 131.591 4.64281C133.734 4.3658 135.911 4.74534 137.832 5.73096C140.24 7.01028 141.864 9.2303 142.836 11.6312Z" fill="#295F2D"/>
<path d="M129.799 25.0989C134.553 25.0989 138.406 21.2606 138.406 16.5258C138.406 11.7911 134.553 7.95276 129.799 7.95276C125.046 7.95276 121.193 11.7911 121.193 16.5258C121.193 21.2606 125.046 25.0989 129.799 25.0989Z" fill="#FFF1B7"/>
<path d="M138.081 11.9291C137.582 13.4314 136.156 13.9155 134.838 14.2174C134.422 14.3139 134.004 14.4038 133.582 14.4838C133.426 14.2899 133.261 14.0999 133.088 13.9202C132.369 13.1687 131.502 12.5745 130.54 12.1753C130.956 13.0231 131.232 13.9319 131.359 14.867C130.562 14.9822 129.761 15.0763 128.955 15.1494C128.274 15.2939 127.562 15.172 126.968 14.809C126.374 14.4459 125.943 13.8694 125.764 13.1987C125.03 14.3934 124.163 15.5185 122.977 15.993C122.299 16.2358 121.561 16.2557 120.87 16.05C120.18 15.8443 119.574 15.4236 119.141 14.8498C118.431 13.9867 118.035 12.8272 117.751 11.7081C117.414 10.3777 117.227 8.84521 117.888 8.00113C118.418 7.31801 119.331 7.30574 120.173 7.36635C122.033 7.50845 123.873 7.84075 125.664 8.35799L125.816 8.69764C125.508 6.85533 126.176 5.08279 127.411 4.4524C128.244 4.03092 129.247 4.10159 130.221 4.1871C131.473 4.24271 132.709 4.4809 133.891 4.89404C135.247 5.41358 136.408 6.33777 137.217 7.54014C138.081 8.84798 138.511 10.6317 138.081 11.9291Z" fill="#295F2D"/>
<path d="M125.812 3.91624C125.897 3.89127 125.677 3.92335 125.753 3.92538C125.715 3.92319 125.678 3.91794 125.641 3.90968C125.634 3.90842 125.549 3.88118 125.605 3.90119C125.478 3.86312 125.364 3.78899 125.277 3.68777C125.075 3.43874 124.916 3.15756 124.808 2.85603C124.671 2.45758 124.451 2.09243 124.163 1.78458C124.081 1.70266 123.981 1.64114 123.871 1.60499C123.761 1.56884 123.643 1.55909 123.529 1.57653C123.414 1.59397 123.305 1.63812 123.211 1.70537C123.116 1.77263 123.039 1.8611 122.986 1.96361C122.818 2.33295 122.971 2.78802 123.091 3.15077C123.214 3.52767 123.398 3.88228 123.634 4.20093C124.031 4.722 124.571 5.11687 125.189 5.33742C125.905 5.59623 126.685 5.61844 127.414 5.40074C127.51 5.36094 127.593 5.29409 127.652 5.20833C127.71 5.12258 127.743 5.02163 127.745 4.91778C127.748 4.81393 127.719 4.71165 127.664 4.62342C127.609 4.5352 127.53 4.46482 127.435 4.42087L126.219 3.92509C126.155 3.89703 126.086 3.88181 126.017 3.88029C125.947 3.87877 125.877 3.891 125.812 3.91624C125.747 3.94149 125.687 3.97926 125.637 4.02743C125.586 4.0756 125.546 4.13321 125.518 4.19697C125.489 4.26073 125.474 4.32939 125.473 4.39903C125.471 4.46867 125.483 4.53793 125.509 4.60285C125.534 4.66777 125.572 4.72709 125.62 4.7774C125.669 4.82772 125.726 4.86806 125.79 4.89611L127.006 5.39188L127.028 4.41201C126.876 4.45564 126.72 4.48223 126.562 4.49129C126.394 4.50807 126.224 4.50094 126.058 4.47011C125.899 4.44932 125.743 4.41133 125.592 4.3568C125.495 4.32164 125.4 4.28161 125.308 4.23688C125.274 4.22061 125.241 4.20373 125.208 4.18622C125.21 4.18748 125.069 4.10542 125.131 4.14398C124.974 4.04387 124.826 3.92938 124.69 3.80199C124.642 3.75682 124.598 3.70781 124.558 3.65546C124.489 3.57069 124.424 3.48196 124.366 3.38973C124.246 3.19441 124.151 2.98499 124.083 2.7663C124.052 2.67439 124.026 2.58094 124.005 2.48633C123.999 2.4344 123.99 2.38292 123.977 2.33226C123.932 2.21157 123.985 2.40274 123.933 2.45504L123.709 2.61956C123.667 2.63205 123.623 2.63495 123.579 2.62803C123.536 2.62111 123.495 2.60456 123.459 2.57961C123.432 2.54238 123.438 2.54856 123.476 2.59813C123.521 2.65647 123.561 2.71755 123.598 2.78102C123.678 2.93043 123.751 3.0838 123.816 3.24055C123.949 3.57392 124.118 3.89211 124.32 4.1897C124.518 4.4907 124.806 4.72189 125.143 4.85033C125.48 4.97877 125.849 4.99789 126.198 4.90497C126.329 4.85307 126.434 4.75199 126.491 4.62354C126.547 4.49509 126.551 4.34957 126.501 4.21837C126.448 4.08908 126.346 3.98541 126.218 3.92909C126.089 3.87276 125.944 3.86817 125.812 3.91624Z" fill="#295F2D"/>
<path d="M112.39 97.0605C126.443 97.0605 137.836 85.7114 137.836 71.7116C137.836 57.7118 126.443 46.3627 112.39 46.3627C98.3357 46.3627 86.9429 57.7118 86.9429 71.7116C86.9429 85.7114 98.3357 97.0605 112.39 97.0605Z" fill="white"/>
<path d="M112.39 97.4142C107.286 97.4142 102.298 95.9068 98.0549 93.0825C93.8119 90.2583 90.5048 86.2441 88.552 81.5476C86.5991 76.8511 86.0881 71.6832 87.0837 66.6974C88.0792 61.7116 90.5365 57.1318 94.145 53.5373C97.7534 49.9427 102.351 47.4948 107.356 46.503C112.361 45.5112 117.549 46.0202 122.263 47.9655C126.978 49.9109 131.008 53.2052 133.843 57.432C136.678 61.6587 138.191 66.628 138.191 71.7115C138.183 78.5259 135.463 85.059 130.626 89.8775C125.788 94.696 119.23 97.4065 112.39 97.4142ZM112.39 46.7163C107.427 46.7163 102.576 48.1823 98.4493 50.9288C94.323 53.6753 91.107 57.5791 89.2078 62.1464C87.3087 66.7137 86.8118 71.7394 87.78 76.588C88.7482 81.4367 91.1379 85.8904 94.6471 89.3861C98.1562 92.8817 102.627 95.2623 107.494 96.2267C112.362 97.1911 117.407 96.6961 121.992 94.8042C126.577 92.9124 130.495 89.7086 133.253 85.5982C136.01 81.4877 137.481 76.6551 137.481 71.7115C137.474 65.0846 134.828 58.7313 130.124 54.0455C125.42 49.3596 119.042 46.7238 112.39 46.7163Z" fill="#F3FFF4"/>
<path d="M108.918 84.9044C108.479 84.9044 108.045 84.8025 107.652 84.6067C107.259 84.4109 106.917 84.1266 106.654 83.7763L99.7116 74.5554C99.4885 74.2592 99.3263 73.9221 99.234 73.5634C99.1418 73.2047 99.1214 72.8314 99.174 72.4648C99.2266 72.0983 99.3511 71.7456 99.5405 71.427C99.7299 71.1084 99.9804 70.8301 100.278 70.6079C100.575 70.3858 100.914 70.2241 101.274 70.1322C101.634 70.0404 102.008 70.02 102.376 70.0724C102.744 70.1248 103.098 70.2488 103.418 70.4375C103.738 70.6262 104.017 70.8757 104.24 71.172L108.782 77.2041L120.447 59.7738C120.654 59.4657 120.919 59.201 121.228 58.995C121.536 58.7889 121.883 58.6455 122.248 58.5729C122.612 58.5003 122.987 58.4999 123.352 58.5717C123.717 58.6436 124.064 58.7863 124.373 58.9917C124.682 59.1971 124.948 59.4612 125.155 59.7689C125.362 60.0765 125.505 60.4218 125.578 60.7849C125.651 61.148 125.652 61.5219 125.58 61.8851C125.507 62.2484 125.364 62.5939 125.158 62.902L111.273 83.6488C111.022 84.024 110.685 84.3337 110.288 84.552C109.892 84.7704 109.449 84.8909 108.997 84.9035C108.971 84.904 108.944 84.9044 108.918 84.9044Z" fill="#3C3A3D"/>
<path d="M84.3599 204.079C84.3597 204.135 84.3705 204.189 84.3917 204.24C84.4129 204.292 84.444 204.338 84.4832 204.377C84.5225 204.416 84.5691 204.447 84.6205 204.468C84.6718 204.489 84.7268 204.5 84.7823 204.5H174.695C174.807 204.5 174.914 204.456 174.993 204.377C175.073 204.298 175.117 204.191 175.117 204.079C175.117 203.968 175.073 203.861 174.993 203.782C174.914 203.703 174.807 203.658 174.695 203.658H84.7823C84.7268 203.658 84.6718 203.669 84.6205 203.69C84.5691 203.711 84.5225 203.742 84.4832 203.781C84.444 203.82 84.4129 203.867 84.3917 203.918C84.3705 203.969 84.3597 204.024 84.3599 204.079Z" fill="#CCCCCC"/>
<path d="M163.969 72.5786L155.65 49.6857C155.295 48.7168 154.572 47.926 153.636 47.4838C152.701 47.0416 151.628 46.9835 150.65 47.3221C150.144 47.4973 149.679 47.7733 149.284 48.1332C148.888 48.4932 148.571 48.9296 148.35 49.4159C148.129 49.9022 148.011 50.4281 148.001 50.9616C147.991 51.4951 148.09 52.0251 148.292 52.5191L157.665 76.0353L162.755 90.5638C162.231 91.0363 161.866 91.6581 161.709 92.3446C161.552 93.0312 161.611 93.7493 161.878 94.4013C162.145 95.0534 162.606 95.6078 163.201 95.9892C163.795 96.3706 164.493 96.5605 165.199 96.5332C165.905 96.5059 166.586 96.2626 167.149 95.8364C167.711 95.4102 168.129 94.8218 168.344 94.1511C168.559 93.4804 168.562 92.7599 168.352 92.0876C168.142 91.4152 167.73 90.8236 167.17 90.393L163.969 72.5786Z" fill="#FFF1B7"/>
<path d="M151.45 39.4904L158.195 51.5133C158.195 51.5133 142.651 56.8148 142.614 55.9321C142.576 55.0495 143.386 42.801 143.386 42.801L151.45 39.4904Z" fill="#E6E6E6"/>
</g>
<defs>
<clipPath id="clip0_144_1698">
<rect width="246" height="204" fill="white" transform="translate(0 0.5)"/>
</clipPath>
</defs>
</svg>
