<svg width="36" height="36" viewBox="0 0 36 36" fill="none" xmlns="http://www.w3.org/2000/svg">
<path d="M34.6666 18.0002C34.6666 27.2048 27.2046 34.6668 18 34.6668C8.79523 34.6668 1.33331 27.2048 1.33331 18.0002C1.33331 8.79541 8.79523 1.3335 18 1.3335C27.2046 1.3335 34.6666 8.79541 34.6666 18.0002Z" stroke="black" stroke-width="1.5"/>
<path d="M23 21.3335C23 23.1745 21.5077 24.6668 19.6667 24.6668H18C16.4468 24.6668 15.6703 24.6668 15.0577 24.4132C14.241 24.0748 13.592 23.4258 13.2537 22.6092C13 21.9965 13 21.22 13 19.6668V16.3335C13 14.7803 13 14.0038 13.2537 13.3912C13.592 12.5745 14.241 11.9255 15.0577 11.5872C15.6703 11.3335 16.4468 11.3335 18 11.3335H19.6667C21.5077 11.3335 23 12.8259 23 14.6668" stroke="black" stroke-width="1.5" stroke-linecap="round"/>
</svg>
