<svg width="26" height="29" viewBox="0 0 26 29" fill="none" xmlns="http://www.w3.org/2000/svg">
<path d="M4.36 2.18683L2.28 4.96016C1.86802 5.50947 1.66203 5.78412 1.66681 6.01402C1.67097 6.21408 1.76478 6.4017 1.92233 6.52506C2.10339 6.66683 2.4467 6.66683 3.13333 6.66683H22.8667C23.5533 6.66683 23.8966 6.66683 24.0777 6.52506C24.2352 6.4017 24.329 6.21408 24.3332 6.01402C24.338 5.78412 24.132 5.50947 23.72 4.96016L21.64 2.18683M4.36 2.18683C4.59467 1.87394 4.712 1.7175 4.8607 1.60466C4.9924 1.50473 5.14154 1.43016 5.30051 1.38476C5.48 1.3335 5.67556 1.3335 6.06667 1.3335H19.9333C20.3244 1.3335 20.52 1.3335 20.6995 1.38476C20.8585 1.43016 21.0076 1.50473 21.1393 1.60466C21.288 1.7175 21.4053 1.87394 21.64 2.18683M4.36 2.18683L1.85333 5.52905C1.53672 5.9512 1.37841 6.16228 1.266 6.39473C1.16625 6.60099 1.09349 6.81925 1.04954 7.04411C1 7.29751 1 7.56136 1 8.08905L1 23.7335C1 25.227 1 25.9737 1.29065 26.5441C1.54631 27.0459 1.95426 27.4538 2.45603 27.7095C3.02646 28.0002 3.77319 28.0002 5.26667 28.0002L20.7333 28.0002C22.2268 28.0002 22.9735 28.0002 23.544 27.7095C24.0457 27.4538 24.4537 27.0459 24.7094 26.5441C25 25.9737 25 25.227 25 23.7335V8.08905C25 7.56136 25 7.29752 24.9505 7.04411C24.9065 6.81925 24.8338 6.60099 24.734 6.39473C24.6216 6.16228 24.4633 5.9512 24.1467 5.52905L21.64 2.18683M18.3333 12.0002C18.3333 13.4146 17.7714 14.7712 16.7712 15.7714C15.771 16.7716 14.4145 17.3335 13 17.3335C11.5855 17.3335 10.229 16.7716 9.22876 15.7714C8.22857 14.7712 7.66667 13.4146 7.66667 12.0002" stroke="#003FFC" stroke-width="2" stroke-linecap="round" stroke-linejoin="round"/>
</svg>
