<svg width="26" height="26" viewBox="0 0 26 26" fill="none" xmlns="http://www.w3.org/2000/svg">
<path d="M9.4 9.4H9.412M16.6 16.6H16.612M17.8 8.2L8.2 17.8M20.0814 4.59821C20.3285 5.19584 20.8028 5.67088 21.4001 5.91889L23.4943 6.78637C24.0919 7.03394 24.5668 7.50879 24.8143 8.10647C25.0619 8.70415 25.0619 9.37569 24.8143 9.97337L23.9475 12.0662C23.6998 12.6641 23.6995 13.3363 23.9483 13.934L24.8136 16.0262C24.9363 16.3222 24.9995 16.6395 24.9996 16.9599C24.9996 17.2804 24.9365 17.5977 24.8139 17.8938C24.6913 18.1898 24.5115 18.4588 24.2849 18.6854C24.0583 18.912 23.7892 19.0916 23.4931 19.2142L21.4004 20.081C20.8028 20.3281 20.3278 20.8025 20.0798 21.3997L19.2123 23.494C18.9648 24.0917 18.4899 24.5666 17.8923 24.8141C17.2946 25.0617 16.6231 25.0617 16.0255 24.8141L13.9327 23.9473C13.3351 23.7003 12.6638 23.7008 12.0665 23.9487L9.97227 24.8149C9.37495 25.0619 8.70401 25.0617 8.10684 24.8143C7.50967 24.567 7.0351 24.0927 6.78737 23.4956L5.91966 21.4007C5.67256 20.8031 5.19825 20.328 4.60102 20.08L2.5068 19.2125C1.9094 18.9651 1.43471 18.4905 1.18706 17.8932C0.93941 17.2959 0.939074 16.6246 1.18612 16.0271L2.05296 13.9343C2.2999 13.3366 2.2994 12.6653 2.05155 12.0679L1.18597 9.97214C1.06324 9.67612 1.00005 9.35881 1 9.03836C0.999949 8.7179 1.06304 8.40058 1.18567 8.10452C1.3083 7.80846 1.48806 7.53946 1.71468 7.3129C1.9413 7.08634 2.21035 6.90666 2.50644 6.78412L4.59916 5.91726C5.19624 5.67037 5.67098 5.19664 5.91916 4.60007L6.78662 2.50577C7.03417 1.90809 7.50901 1.43324 8.10667 1.18567C8.70432 0.938108 9.37584 0.938108 9.9735 1.18567L12.0662 2.05254C12.6639 2.2995 13.3352 2.29899 13.9325 2.05114L16.0276 1.18702C16.6251 0.939592 17.2965 0.939642 17.8941 1.18716C18.4916 1.43468 18.9664 1.90939 19.214 2.50692L20.0817 4.60184L20.0814 4.59821ZM10 9.4C10 9.73137 9.73137 10 9.4 10C9.06863 10 8.8 9.73137 8.8 9.4C8.8 9.06863 9.06863 8.8 9.4 8.8C9.73137 8.8 10 9.06863 10 9.4ZM17.2 16.6C17.2 16.9314 16.9314 17.2 16.6 17.2C16.2686 17.2 16 16.9314 16 16.6C16 16.2686 16.2686 16 16.6 16C16.9314 16 17.2 16.2686 17.2 16.6Z" stroke="#D0A900" stroke-width="2" stroke-linecap="round" stroke-linejoin="round"/>
</svg>
