<svg width="26" height="26" viewBox="0 0 26 26" fill="none" xmlns="http://www.w3.org/2000/svg">
<path d="M3.66667 8.97829V19.6594M9.66667 8.97829V19.6594M16.3333 8.97829V19.6594M22.3333 8.97829V19.6594M1 21.7957L1 22.8638C1 23.6115 1 23.9854 1.14532 24.271C1.27316 24.5222 1.47713 24.7265 1.72801 24.8545C2.01323 25 2.3866 25 3.13333 25H22.8667C23.6134 25 23.9868 25 24.272 24.8545C24.5229 24.7265 24.7268 24.5222 24.8547 24.271C25 23.9854 25 23.6115 25 22.8638V21.7957C25 21.0479 25 20.674 24.8547 20.3884C24.7268 20.1372 24.5229 19.933 24.272 19.805C23.9868 19.6594 23.6134 19.6594 22.8667 19.6594H3.13333C2.3866 19.6594 2.01323 19.6594 1.72801 19.805C1.47713 19.933 1.27316 20.1372 1.14532 20.3884C1 20.674 1 21.0479 1 21.7957ZM12.5372 1.07041L2.67055 3.26598C2.07447 3.39862 1.77643 3.46494 1.55395 3.62544C1.35772 3.767 1.20364 3.95935 1.1082 4.18188C1 4.43416 1 4.73989 1 5.35134L1 6.84206C1 7.58981 1 7.96368 1.14532 8.24929C1.27316 8.50051 1.47713 8.70476 1.72801 8.83277C2.01323 8.97829 2.3866 8.97829 3.13333 8.97829H22.8667C23.6134 8.97829 23.9868 8.97829 24.272 8.83277C24.5229 8.70476 24.7268 8.50051 24.8547 8.24929C25 7.96368 25 7.58981 25 6.84206V5.35134C25 4.73989 25 4.43416 24.8918 4.18188C24.7964 3.95935 24.6423 3.767 24.446 3.62544C24.2236 3.46494 23.9255 3.39862 23.3295 3.26598L13.4628 1.07041C13.2901 1.03198 13.2037 1.01277 13.1165 1.0051C13.039 0.998299 12.961 0.998299 12.8835 1.0051C12.7963 1.01277 12.7099 1.03198 12.5372 1.07041Z" stroke="#295F2D" stroke-width="2" stroke-linecap="round" stroke-linejoin="round"/>
</svg>
