<svg width="21" height="22" viewBox="0 0 21 22" fill="none" xmlns="http://www.w3.org/2000/svg">
<path d="M3.7835 4.2835L17.2165 17.7165M1 7.6966V14.3034C1 14.5358 1 14.6519 1.02625 14.7613C1.04952 14.8582 1.0879 14.9509 1.13999 15.0359C1.19874 15.1317 1.28089 15.2139 1.4452 15.3782L6.1218 20.0548C6.28611 20.2191 6.36826 20.3013 6.46413 20.36C6.54913 20.4121 6.6418 20.4505 6.73873 20.4738C6.84806 20.5 6.96424 20.5 7.1966 20.5H13.8034C14.0358 20.5 14.1519 20.5 14.2613 20.4738C14.3582 20.4505 14.4509 20.4121 14.5359 20.36C14.6317 20.3013 14.7139 20.2191 14.8782 20.0548L19.5548 15.3782C19.7191 15.2139 19.8013 15.1317 19.86 15.0359C19.9121 14.9509 19.9505 14.8582 19.9738 14.7613C20 14.6519 20 14.5358 20 14.3034V7.6966C20 7.46424 20 7.34806 19.9738 7.23873C19.9505 7.1418 19.9121 7.04913 19.86 6.96413C19.8013 6.86826 19.7191 6.78611 19.5548 6.6218L14.8782 1.9452C14.7139 1.78089 14.6317 1.69874 14.5359 1.63999C14.4509 1.5879 14.3582 1.54952 14.2613 1.52625C14.1519 1.5 14.0358 1.5 13.8034 1.5H7.1966C6.96424 1.5 6.84806 1.5 6.73873 1.52625C6.6418 1.54952 6.54913 1.5879 6.46413 1.63999C6.36826 1.69874 6.28611 1.78089 6.1218 1.9452L1.4452 6.6218C1.28089 6.78611 1.19874 6.86826 1.13999 6.96413C1.0879 7.04913 1.04952 7.1418 1.02625 7.23873C1 7.34806 1 7.46424 1 7.6966Z" stroke="#DA20FF" stroke-width="2" stroke-linecap="round" stroke-linejoin="round"/>
</svg>
