<svg width="21" height="20" viewBox="0 0 21 20" fill="none" xmlns="http://www.w3.org/2000/svg">
<path d="M18.8871 1.94688H16.7903V1.41591C16.7903 0.910059 16.5444 0.4426 16.1452 0.189634C15.746 -0.0632112 15.254 -0.0632112 14.8548 0.189634C14.4556 0.442636 14.2097 0.9101 14.2097 1.41591V1.94688H6.79032V1.41591C6.79032 0.910059 6.54435 0.4426 6.14516 0.189634C5.74597 -0.0632112 5.25403 -0.0632112 4.85484 0.189634C4.45565 0.442636 4.20968 0.9101 4.20968 1.41591V1.94688H2.1129C1.68518 1.94688 1.27493 2.13336 0.972332 2.4652C0.669913 2.79721 0.5 3.24744 0.5 3.7168V18.2301C0.5 18.6994 0.669932 19.1496 0.972332 19.4817C1.27489 19.8135 1.68518 20 2.1129 20H18.8871C19.3148 20 19.7251 19.8135 20.0277 19.4817C20.3301 19.1497 20.5 18.6994 20.5 18.2301V3.7168C20.5 3.24744 20.3301 2.79725 20.0277 2.4652C19.7251 2.13334 19.3148 1.94688 18.8871 1.94688ZM14.8547 1.41591C14.8547 1.16291 14.9776 0.929194 15.1772 0.802772C15.3768 0.67635 15.6228 0.67635 15.8224 0.802772C16.022 0.929194 16.145 1.16292 16.145 1.41591V3.53981C16.145 3.79281 16.022 4.02652 15.8224 4.15294C15.6228 4.27937 15.3768 4.27937 15.1772 4.15294C14.9776 4.02652 14.8547 3.7928 14.8547 3.53981V1.41591ZM4.85465 1.41591C4.85465 1.16291 4.97764 0.929194 5.17723 0.802772C5.37683 0.67635 5.6228 0.67635 5.8224 0.802772C6.02199 0.929194 6.14498 1.16292 6.14498 1.41591V3.53981C6.14498 3.79281 6.02199 4.02652 5.8224 4.15294C5.6228 4.27937 5.37683 4.27937 5.17723 4.15294C4.97764 4.02652 4.85465 3.7928 4.85465 3.53981V1.41591ZM2.11272 2.65485H4.20949V3.53981C4.20949 4.04566 4.45546 4.51312 4.85465 4.76608C5.25384 5.01893 5.74579 5.01893 6.14498 4.76608C6.54417 4.51308 6.79014 4.04562 6.79014 3.53981V2.65485H14.2095V3.53981C14.2095 4.04566 14.4555 4.51312 14.8547 4.76608C15.2538 5.01893 15.7458 5.01893 16.145 4.76608C16.5442 4.51308 16.7901 4.04562 16.7901 3.53981V2.65485H18.8869C19.1435 2.65485 19.3898 2.76673 19.5712 2.96585C19.7526 3.16496 19.8546 3.43521 19.8546 3.71678V6.37165H1.14496V3.71678C1.14496 3.43517 1.24692 3.16493 1.42837 2.96585C1.60982 2.76677 1.85609 2.65485 2.11268 2.65485H2.11272ZM18.8869 19.292H2.11272C1.8561 19.292 1.60982 19.1802 1.42841 18.981C1.24699 18.7819 1.145 18.5117 1.145 18.2301V7.07986H19.8547V18.2301C19.8547 18.5117 19.7527 18.782 19.5713 18.981C19.3898 19.1801 19.1435 19.292 18.8869 19.292H18.8869Z" fill="#5A5A5A"/>
</svg>
