<svg width="26" height="30" viewBox="0 0 26 30" fill="none" xmlns="http://www.w3.org/2000/svg">
<path d="M25 12.3332H1M18.3333 1.6665V6.99984M7.66667 1.6665V6.99984M7.4 28.3332H18.6C20.8402 28.3332 21.9603 28.3332 22.816 27.8972C23.5686 27.5137 24.1805 26.9018 24.564 26.1491C25 25.2935 25 24.1734 25 21.9332V10.7332C25 8.49296 25 7.37286 24.564 6.51721C24.1805 5.76456 23.5686 5.15264 22.816 4.76914C21.9603 4.33317 20.8402 4.33317 18.6 4.33317H7.4C5.15979 4.33317 4.03969 4.33317 3.18404 4.76914C2.43139 5.15264 1.81947 5.76456 1.43597 6.51721C1 7.37286 1 8.49296 1 10.7332V21.9332C1 24.1734 1 25.2935 1.43597 26.1491C1.81947 26.9018 2.43139 27.5137 3.18404 27.8972C4.03969 28.3332 5.15979 28.3332 7.4 28.3332Z" stroke="#295F2D" stroke-width="2" stroke-linecap="round" stroke-linejoin="round"/>
</svg>
