<svg width="15" height="15" viewBox="0 0 15 15" fill="none" xmlns="http://www.w3.org/2000/svg">
<path d="M13.0896 8.60526H11.814V3.62274L6.75743 8.85432L1.609 3.60653V12.2895H7.98713V13.7632H0.971187C0.802029 13.7632 0.639798 13.6855 0.520185 13.5473C0.400572 13.4092 0.333374 13.2217 0.333374 13.0263V1.23684C0.333374 1.04142 0.400572 0.854001 0.520185 0.715816C0.639798 0.577631 0.802029 0.5 0.971187 0.5H12.4518C12.621 0.5 12.7832 0.577631 12.9028 0.715816C13.0224 0.854001 13.0896 1.04142 13.0896 1.23684V8.60526ZM1.93492 1.97368L6.75041 6.88253L11.4964 1.97368H1.93492ZM11.1762 14.5L8.92089 11.8953L9.8234 10.8526L11.1762 12.4162L13.4309 9.81074L14.3334 10.8526L11.1762 14.5Z" fill="#BBBBBB"/>
</svg>
