<svg width="38" height="30" viewBox="0 0 38 30" fill="none" xmlns="http://www.w3.org/2000/svg">
<path d="M2.33337 6.66699L15.9416 16.1927C17.0435 16.9641 17.5945 17.3498 18.1938 17.4992C18.7232 17.6311 19.2769 17.6311 19.8063 17.4992C20.4056 17.3498 20.9566 16.9641 22.0585 16.1927L35.6667 6.66699M10.3334 28.3337H27.6667C30.467 28.3337 31.8671 28.3337 32.9367 27.7887C33.8775 27.3093 34.6424 26.5444 35.1217 25.6036C35.6667 24.5341 35.6667 23.1339 35.6667 20.3337V9.66699C35.6667 6.86673 35.6667 5.4666 35.1217 4.39704C34.6424 3.45623 33.8775 2.69133 32.9367 2.21196C31.8671 1.66699 30.467 1.66699 27.6667 1.66699H10.3334C7.53311 1.66699 6.13298 1.66699 5.06342 2.21196C4.12261 2.69133 3.35771 3.45623 2.87834 4.39704C2.33337 5.4666 2.33337 6.86673 2.33337 9.66699V20.3337C2.33337 23.1339 2.33337 24.5341 2.87834 25.6036C3.35771 26.5444 4.12261 27.3093 5.06342 27.7887C6.13298 28.3337 7.53311 28.3337 10.3334 28.3337Z" stroke="#295F2D" stroke-width="3" stroke-linecap="round" stroke-linejoin="round"/>
</svg>
