<svg width="61" height="60" viewBox="0 0 61 60" fill="none" xmlns="http://www.w3.org/2000/svg">
<g clip-path="url(#clip0_403_1232)">
<path d="M58.7414 56.4844H56.8664V21.7973C56.8664 20.8266 56.0794 20.0396 55.1086 20.0396H48.0775C47.1067 20.0396 46.3197 20.8266 46.3197 21.7973V56.4844H42.8041V33.5159C42.8041 32.5452 42.0171 31.7581 41.0463 31.7581H34.0152C33.0444 31.7581 32.2574 32.5452 32.2574 33.5159V56.4844H28.7418V39.9612C28.7418 38.9904 27.9548 38.2034 26.984 38.2034H19.9529C18.9821 38.2034 18.1951 38.9904 18.1951 39.9612V56.4844H14.6795V44.1798C14.6795 43.2091 13.8925 42.4221 12.9217 42.4221H5.89055C4.91978 42.4221 4.13276 43.2091 4.13276 44.1798V56.4844H2.25779C1.28702 56.4844 0.5 57.2714 0.5 58.2421C0.5 59.2129 1.28702 59.9999 2.25779 59.9999H58.7414C59.7122 59.9999 60.4992 59.2129 60.4992 58.2421C60.4992 57.2714 59.7122 56.4844 58.7414 56.4844Z" fill="#295F2D"/>
<path d="M2.25779 37.7703C13.2285 37.7703 25.1254 33.8303 35.7573 26.676C44.0839 21.0728 51.0249 13.9147 55.3364 6.58506L57.0436 12.9561C57.2541 13.7415 58.2702 14.42 59.1964 14.199C60.1407 13.9737 60.6905 12.9839 60.4393 12.0462L57.5609 1.30373C57.3095 0.366121 56.3461 -0.190512 55.408 0.060852L44.6656 2.93929C43.7279 3.19054 43.1715 4.15439 43.4227 5.09211C43.6741 6.02983 44.6375 6.58647 45.5756 6.33498L52.496 4.48064C48.4736 11.4703 41.8258 18.3547 33.7945 23.7592C23.7367 30.5274 12.5367 34.2548 2.25779 34.2548C1.28702 34.2548 0.5 35.0418 0.5 36.0125C0.5 36.9833 1.28702 37.7703 2.25779 37.7703Z" fill="#295F2D"/>
</g>
<defs>
<clipPath id="clip0_403_1232">
<rect width="60" height="60" fill="white" transform="translate(0.5)"/>
</clipPath>
</defs>
</svg>
