<svg width="61" height="60" viewBox="0 0 61 60" fill="none" xmlns="http://www.w3.org/2000/svg">
<g clip-path="url(#clip0_403_1533)">
<path d="M31.7656 28.7913C31.7558 28.781 31.7529 28.7673 31.7429 28.7572L21.7112 18.7253V12.422C21.7112 11.955 21.5258 11.5087 21.1962 11.1791L10.6494 0.515115C10.1481 0.0140214 9.39111 -0.138791 8.73357 0.134139C8.07615 0.40531 7.64865 1.04738 7.64865 1.75801V7.03144H2.25803C1.54752 7.03133 0.905448 7.45871 0.634276 8.11625C0.361347 8.77367 0.512401 9.52906 1.01537 10.032L11.6794 20.696C12.0091 21.0256 12.4553 21.211 12.9222 21.211H19.2256L29.2573 31.2427C29.2674 31.2528 29.2811 31.2556 29.2914 31.2655C29.9758 31.9187 31.0154 31.9273 31.7089 31.2655C32.4392 30.5684 32.4228 29.4798 31.7656 28.7913Z" fill="#295F2D"/>
<path d="M30.5002 0.000244141C26.0024 0.000244141 21.7498 1.14458 17.9203 2.93204L23.3126 8.32431C25.5757 7.57173 27.9878 7.14868 30.5003 7.14868C43.1002 7.14856 53.3516 17.4001 53.3516 30C53.3516 42.5999 43.1002 52.8515 30.5002 52.8515C17.9002 52.8515 7.64875 42.6 7.64875 30C7.64875 27.4875 8.07191 25.0754 8.82437 22.8123L3.43211 17.42C1.64488 21.2496 0.500427 25.5022 0.500427 30C0.500427 46.4776 14.0226 59.9999 30.5002 59.9999C46.9778 59.9999 60.5001 46.4776 60.5001 30C60.5001 13.5224 46.978 0.000244141 30.5002 0.000244141Z" fill="#295F2D"/>
<path d="M30.5001 14.1798C28.6421 14.1798 26.8843 14.5607 25.2267 15.1516V17.2697L29.2904 21.3334C29.6895 21.2776 30.0859 21.2111 30.5001 21.2111C35.3462 21.2111 39.2892 25.1541 39.2892 30.0001C39.2892 34.8462 35.3462 38.7892 30.5001 38.7892C25.6541 38.7892 21.7111 34.8462 21.7111 30.0001C21.7111 29.5857 21.7776 29.1894 21.8334 28.7904L17.7698 24.7266H15.6518C15.0608 26.3842 14.6799 28.142 14.6799 30C14.6799 38.7238 21.7765 45.8202 30.5001 45.8202C39.2238 45.8202 46.3204 38.7238 46.3204 30C46.3204 21.2762 39.2239 14.1798 30.5001 14.1798Z" fill="#295F2D"/>
</g>
<defs>
<clipPath id="clip0_403_1533">
<rect width="60" height="60" fill="white" transform="translate(0.5)"/>
</clipPath>
</defs>
</svg>
