<svg width="61" height="60" viewBox="0 0 61 60" fill="none" xmlns="http://www.w3.org/2000/svg">
<g clip-path="url(#clip0_403_1453)">
<path d="M54.7578 9.9269C54.2361 8.92014 53.3672 8.13659 52.3121 7.72143C45.2808 4.99448 38.3668 2.39174 31.6262 0.171038C30.9416 -0.0573382 30.2014 -0.0573382 29.5168 0.171038C22.7773 2.38588 15.8644 4.98393 8.83437 7.70737C7.90782 8.07586 7.12293 8.73021 6.59374 9.57533C6.63241 9.58119 5.14765 14.216 4.89569 24.4581C4.73983 34.6874 6.01483 37.7566 5.97265 37.7601C6.66171 40.0089 7.95312 42.2988 9.80468 44.6261C11.873 47.2253 14.668 49.9101 18.043 52.5503C23.6328 56.9367 28.8629 59.5581 29.082 59.6507C29.5468 59.8812 30.0586 60.0011 30.5773 60.0011C31.0961 60.0011 31.6079 59.8812 32.0726 59.6507C32.293 59.5581 37.5289 56.9285 43.1152 52.5433C46.4914 49.9019 49.2875 47.2171 51.357 44.6191C53.3398 42.1265 54.6805 39.6808 55.3285 37.2785C55.3027 37.2785 56.2402 33.5156 56.1101 24.8999C55.9449 16.289 54.7449 9.93158 54.7578 9.9269ZM45.2141 24.1769C40.2535 29.2851 35.1547 34.6335 30.1578 39.9128C29.7515 40.3441 29.2611 40.6876 28.7169 40.922C28.1727 41.1564 27.5863 41.2768 26.9937 41.2757H26.9844C26.3923 41.269 25.8075 41.1443 25.2642 40.9089C24.7209 40.6735 24.2301 40.332 23.8203 39.9046C21.1437 37.1355 18.4508 34.3722 15.773 31.6617C14.0621 29.932 14.1148 27.2085 15.8902 25.5175C17.6656 23.8265 20.4488 23.8171 22.141 25.5538C23.7301 27.1828 25.3262 28.8234 26.9293 30.4757C30.9008 26.3109 34.8863 22.1132 38.7652 18.0351C40.4141 16.2996 43.1703 16.3206 44.9644 18.0351C46.7586 19.7496 46.884 22.4648 45.2176 24.1769H45.2141Z" fill="#295F2D"/>
</g>
<defs>
<clipPath id="clip0_403_1453">
<rect width="60" height="60" fill="white" transform="translate(0.5)"/>
</clipPath>
</defs>
</svg>
