<svg width="34" height="35" viewBox="0 0 34 35" fill="none" xmlns="http://www.w3.org/2000/svg">
<path d="M12 33.0002V20.6669C12 19.7335 12 19.2668 12.1817 18.9102C12.3414 18.5966 12.5964 18.3417 12.91 18.1819C13.2665 18.0002 13.7332 18.0002 14.6667 18.0002H19.3333C20.2668 18.0002 20.7335 18.0002 21.09 18.1819C21.4036 18.3417 21.6586 18.5966 21.8183 18.9102C22 19.2668 22 19.7335 22 20.6669V33.0002M15.3628 2.60691L4.05898 11.3988C3.30337 11.9865 2.92556 12.2803 2.65338 12.6483C2.41228 12.9743 2.23267 13.3415 2.12338 13.732C2 14.1728 2 14.6514 2 15.6087V27.6669C2 29.5337 2 30.4671 2.36331 31.1802C2.68289 31.8074 3.19282 32.3173 3.82003 32.6369C4.53307 33.0002 5.46649 33.0002 7.33333 33.0002H26.6667C28.5335 33.0002 29.4669 33.0002 30.18 32.6369C30.8072 32.3173 31.3171 31.8074 31.6367 31.1802C32 30.4671 32 29.5337 32 27.6669V15.6087C32 14.6514 32 14.1728 31.8766 13.732C31.7673 13.3415 31.5877 12.9743 31.3466 12.6483C31.0744 12.2803 30.6966 11.9865 29.941 11.3988L18.6372 2.60691C18.0516 2.15149 17.7589 1.92378 17.4356 1.83625C17.1503 1.75901 16.8497 1.75901 16.5644 1.83625C16.2411 1.92378 15.9484 2.15149 15.3628 2.60691Z" stroke="#295F2D" stroke-width="3" stroke-linecap="round" stroke-linejoin="round"/>
</svg>
