<svg width="16" height="16" viewBox="0 0 16 16" fill="none" xmlns="http://www.w3.org/2000/svg">
<path d="M8 0C7.38116 0 6.78767 0.421428 6.35008 1.17157C5.9125 1.92172 5.66667 2.93913 5.66667 4C5.66667 5.06087 5.9125 6.07828 6.35008 6.82843C6.78767 7.57857 7.38116 8 8 8C8.61884 8 9.21233 7.57857 9.64992 6.82843C10.0875 6.07828 10.3333 5.06087 10.3333 4C10.3333 2.93913 10.0875 1.92172 9.64992 1.17157C9.21233 0.421428 8.61884 0 8 0ZM8 2.28571C8.26522 2.28571 8.51957 2.46633 8.70711 2.78782C8.89464 3.10931 9 3.54534 9 4C9 4.45466 8.89464 4.89069 8.70711 5.21218C8.51957 5.53367 8.26522 5.71429 8 5.71429C7.73478 5.71429 7.48043 5.53367 7.29289 5.21218C7.10536 4.89069 7 4.45466 7 4C7 3.54534 7.10536 3.10931 7.29289 2.78782C7.48043 2.46633 7.73478 2.28571 8 2.28571ZM3.66667 3.42857C3.22464 3.42857 2.80072 3.72959 2.48816 4.26541C2.17559 4.80123 2 5.52795 2 6.28571C2 7.36 2.35333 8.28572 2.86 8.77714C3.1 9.00572 3.37333 9.14286 3.66667 9.14286C3.96 9.14286 4.23333 9.00572 4.47333 8.77714C4.72 8.53714 4.92667 8.19429 5.08 7.78286C4.59432 6.6978 4.33178 5.36768 4.33333 4V3.68C4.13333 3.52 3.90667 3.42857 3.66667 3.42857ZM12.3333 3.42857C12.0933 3.42857 11.8667 3.52 11.6667 3.68V4C11.6667 5.37143 11.4067 6.69714 10.92 7.78286C11 8 11.0867 8.17143 11.1867 8.34286C11.4941 8.85383 11.9051 9.14059 12.3333 9.14286C12.6267 9.14286 12.9 9.00572 13.14 8.77714C13.6467 8.28572 14 7.36 14 6.28571C14 5.52795 13.8244 4.80123 13.5118 4.26541C13.1993 3.72959 12.7754 3.42857 12.3333 3.42857ZM8 10.2857C6.44 10.2857 3.33333 11.6229 3.33333 14.2857V16H12.6667V14.2857C12.6667 11.6229 9.56 10.2857 8 10.2857ZM3.14 10.9143C1.85333 11.1771 0 12.2971 0 14.2857V16H2V13.7943C2 12.64 2.46 11.68 3.14 10.9143ZM12.86 10.9143C13.54 11.68 14 12.64 14 13.7943V16H16V14.2857C16 12.2971 14.1467 11.1771 12.86 10.9143ZM8 12.5714C9.02 12.5714 10.16 13.1429 10.82 13.7143H5.18C5.84 13.1429 6.98 12.5714 8 12.5714Z" fill="#295F2D"/>
</svg>
