<svg width="18" height="18" viewBox="0 0 18 18" fill="none" xmlns="http://www.w3.org/2000/svg">
<path d="M16.1611 12.696L11.4881 14.0463C11.296 13.5492 10.9245 13.1375 10.4692 12.9091C10.9256 12.777 11.4092 12.6371 11.906 12.4934C13.3011 12.0899 14.8012 11.656 16.0989 11.2773L16.352 12.3095L16.3521 12.3099C16.3969 12.4892 16.3059 12.6524 16.162 12.6958L16.1611 12.696ZM16.1611 12.696C16.1614 12.696 16.1616 12.6959 16.1619 12.6958L16.1611 12.696ZM17.0667 12.1057L17.0653 12.1001L17.0652 12.0998L16.7134 10.6846C16.7134 10.6843 16.7133 10.6839 16.7132 10.6836C16.6627 10.4654 16.4573 10.3531 16.2561 10.408L16.255 10.4082L15.0014 10.7646L13.5437 4.85453C13.5436 4.85423 13.5435 4.85393 13.5435 4.85363C13.493 4.63535 13.2875 4.52305 13.0863 4.5779L13.0863 4.57788L13.0846 4.57839L10.2744 5.39937L9.50266 2.28268C9.45214 2.06443 9.24672 1.95215 9.04552 2.00699L9.04552 2.00698L9.04427 2.00734L5.39988 3.0516L4.94291 1.18964C4.89384 0.97735 4.69222 0.856429 4.50271 0.914209L1.52002 1.72342L1.52001 1.72336L1.51643 1.72447C1.0747 1.86226 0.806127 2.3416 0.930452 2.81688C1.05409 3.28961 1.51281 3.57238 1.94324 3.45485L1.94324 3.45485L3.40154 3.05662L6.58336 15.8514C6.6339 16.0697 6.8393 16.1819 7.04049 16.1271L7.0405 16.1271L7.04274 16.1264L7.77463 15.9085C8.20324 16.8094 9.18544 17.308 10.138 17.0172C11.0911 16.746 11.7004 15.7904 11.6599 14.7685L16.3621 13.4151C16.9106 13.2978 17.2022 12.6679 17.0667 12.1057L17.0667 12.1057ZM7.19799 15.2808L4.01565 2.50447L4.01578 2.50444L4.01425 2.49942C3.99006 2.42024 3.94234 2.34879 3.88245 2.29646C3.82299 2.2445 3.74492 2.20596 3.65912 2.20596H3.60352H3.59038L3.57768 2.20935L1.76117 2.69523L1.76115 2.69515L1.75725 2.69636C1.72072 2.70775 1.69916 2.70016 1.68459 2.6897C1.66674 2.67688 1.64939 2.65182 1.64096 2.61666C1.62311 2.54224 1.6524 2.48143 1.70549 2.4622L4.3283 1.74128L7.23208 13.4225C7.2826 13.6408 7.48802 13.753 7.68921 13.6982L7.69017 13.6979L7.90511 13.637C7.61099 14.0932 7.49453 14.6576 7.55256 15.1873L7.19799 15.2808ZM8.33395 15.3559L8.3339 15.3557C8.10591 14.5514 8.52896 13.7413 9.24761 13.5357L9.24865 13.5354C9.99835 13.3122 10.7433 13.8507 10.8826 14.6115L10.8826 14.6115L10.883 14.6132C11.0397 15.3931 10.5871 16.0921 9.93199 16.2996C9.24949 16.5042 8.5426 16.0966 8.33395 15.3559ZM12.9294 5.44708L14.3083 10.9817L7.8461 12.8492L6.46717 7.31459L12.9294 5.44708ZM5.59586 3.8125L8.88829 2.85617L9.56333 5.59703L6.27077 6.55336L5.59586 3.8125Z" fill="#295F2D" stroke="#295F2D" stroke-width="0.2"/>
</svg>
