<svg width="13" height="14" viewBox="0 0 13 14" fill="none" xmlns="http://www.w3.org/2000/svg">
<path d="M10.1668 4.08317V3.03317C10.1668 2.37978 10.1668 2.05308 10.0397 1.80351C9.92782 1.58399 9.74934 1.40552 9.52982 1.29366C9.28025 1.1665 8.95356 1.1665 8.30016 1.1665H5.0335C4.3801 1.1665 4.0534 1.1665 3.80384 1.29366C3.58432 1.40552 3.40584 1.58399 3.29399 1.80351C3.16683 2.05308 3.16683 2.37978 3.16683 3.03317V4.08317M3.16683 10.4998C2.62435 10.4998 2.3531 10.4998 2.13056 10.4402C1.52665 10.2784 1.05494 9.80668 0.893126 9.20277C0.833496 8.98023 0.833496 8.70899 0.833496 8.1665V6.88317C0.833496 5.90308 0.833496 5.41303 1.02423 5.03869C1.19201 4.7094 1.45973 4.44169 1.78901 4.27391C2.16336 4.08317 2.6534 4.08317 3.6335 4.08317H9.70016C10.6803 4.08317 11.1703 4.08317 11.5446 4.27391C11.8739 4.44169 12.1416 4.7094 12.3094 5.03869C12.5002 5.41303 12.5002 5.90308 12.5002 6.88317V8.1665C12.5002 8.70899 12.5002 8.98023 12.4405 9.20277C12.2787 9.80668 11.807 10.2784 11.2031 10.4402C10.9806 10.4998 10.7093 10.4998 10.1668 10.4998M8.41683 6.12484H10.1668M5.0335 12.8332H8.30016C8.95356 12.8332 9.28025 12.8332 9.52982 12.706C9.74934 12.5942 9.92782 12.4157 10.0397 12.1962C10.1668 11.9466 10.1668 11.6199 10.1668 10.9665V10.0332C10.1668 9.37978 10.1668 9.05308 10.0397 8.80351C9.92782 8.58399 9.74934 8.40551 9.52982 8.29366C9.28025 8.1665 8.95356 8.1665 8.30016 8.1665H5.0335C4.3801 8.1665 4.0534 8.1665 3.80384 8.29366C3.58432 8.40551 3.40584 8.58399 3.29399 8.80351C3.16683 9.05308 3.16683 9.37978 3.16683 10.0332V10.9665C3.16683 11.6199 3.16683 11.9466 3.29399 12.1962C3.40584 12.4157 3.58432 12.5942 3.80384 12.706C4.0534 12.8332 4.3801 12.8332 5.0335 12.8332Z" stroke="#5A5A5A" stroke-linecap="round" stroke-linejoin="round"/>
</svg>
