<svg width="15" height="15" viewBox="0 0 15 15" fill="none" xmlns="http://www.w3.org/2000/svg">
<path d="M4.75443 3.86663H4.25443V4.36663V6.13307L1.13891 3.66663L4.25443 1.20018V2.96663V3.46663H4.75443H8.43864C9.87745 3.46663 11.2525 4.00985 12.2625 4.96933C13.2716 5.92797 13.8334 7.22254 13.8334 8.56663C13.8334 9.91071 13.2716 11.2053 12.2625 12.1639C11.2525 13.1234 9.87745 13.6666 8.43864 13.6666H2.30706V13.2666H8.43864C9.73574 13.2666 10.9846 12.7774 11.9092 11.899C12.8347 11.0198 13.3597 9.82166 13.3597 8.56663C13.3597 7.31159 12.8347 6.11349 11.9092 5.23428C10.9846 4.3559 9.73574 3.86663 8.43864 3.86663H4.75443Z" fill="#5A5A5A" stroke="#5A5A5A"/>
</svg>
