<svg width="16" height="18" viewBox="0 0 16 18" fill="none" xmlns="http://www.w3.org/2000/svg">
<path d="M5.18127 10.1744L10.4935 13.2699M10.4857 4.72995L5.18127 7.8255M14.8335 3.5555C14.8335 4.84417 13.7888 5.88883 12.5002 5.88883C11.2115 5.88883 10.1668 4.84417 10.1668 3.5555C10.1668 2.26684 11.2115 1.22217 12.5002 1.22217C13.7888 1.22217 14.8335 2.26684 14.8335 3.5555ZM5.50016 8.99995C5.50016 10.2886 4.45549 11.3333 3.16683 11.3333C1.87817 11.3333 0.833496 10.2886 0.833496 8.99995C0.833496 7.71128 1.87817 6.66661 3.16683 6.66661C4.45549 6.66661 5.50016 7.71128 5.50016 8.99995ZM14.8335 14.4444C14.8335 15.7331 13.7888 16.7777 12.5002 16.7777C11.2115 16.7777 10.1668 15.7331 10.1668 14.4444C10.1668 13.1557 11.2115 12.1111 12.5002 12.1111C13.7888 12.1111 14.8335 13.1557 14.8335 14.4444Z" stroke="#5A5A5A" stroke-linecap="round" stroke-linejoin="round"/>
</svg>
