<svg width="88" height="12" viewBox="0 0 88 12" fill="none" xmlns="http://www.w3.org/2000/svg">
<path d="M6 0L7.34708 4.1459H11.7063L8.17963 6.7082L9.52671 10.8541L6 8.2918L2.47329 10.8541L3.82037 6.7082L0.293661 4.1459H4.65292L6 0Z" fill="#F5C400"/>
<path d="M25 0L26.3471 4.1459H30.7063L27.1796 6.7082L28.5267 10.8541L25 8.2918L21.4733 10.8541L22.8204 6.7082L19.2937 4.1459H23.6529L25 0Z" fill="#F5C400"/>
<path d="M44 0L45.3471 4.1459H49.7063L46.1796 6.7082L47.5267 10.8541L44 8.2918L40.4733 10.8541L41.8204 6.7082L38.2937 4.1459H42.6529L44 0Z" fill="#F5C400"/>
<path d="M63 0L64.3471 4.1459H68.7063L65.1796 6.7082L66.5267 10.8541L63 8.2918L59.4733 10.8541L60.8204 6.7082L57.2937 4.1459H61.6529L63 0Z" fill="#F5C400"/>
<path d="M82 1.61803L82.8716 4.30041L82.9838 4.6459H83.3471H86.1675L83.8857 6.3037L83.5918 6.51722L83.7041 6.86271L84.5757 9.54508L82.2939 7.88729L82 7.67376L81.7061 7.88729L79.4243 9.54508L80.2959 6.86271L80.4082 6.51722L80.1143 6.3037L77.8325 4.6459H80.6529H81.0162L81.1284 4.30041L82 1.61803Z" fill="#F5C400" stroke="#F5C400"/>
</svg>
