<svg width="23" height="19" viewBox="0 0 23 19" fill="none" xmlns="http://www.w3.org/2000/svg">
<path d="M15.5 1.46776C16.9817 2.20411 18 3.73314 18 5.5C18 7.26686 16.9817 8.79589 15.5 9.53224M17.5 14.7664C19.0115 15.4503 20.3725 16.565 21.5 18M1.5 18C3.44649 15.5226 6.08918 14 9 14C11.9108 14 14.5535 15.5226 16.5 18M13.5 5.5C13.5 7.98528 11.4853 10 9 10C6.51472 10 4.5 7.98528 4.5 5.5C4.5 3.01472 6.51472 1 9 1C11.4853 1 13.5 3.01472 13.5 5.5Z" stroke="white" stroke-width="2" stroke-linecap="round" stroke-linejoin="round"/>
</svg>
