<svg width="15" height="15" viewBox="0 0 15 15" fill="none" xmlns="http://www.w3.org/2000/svg">
<path d="M4.01158 11.8792L4.51838 12.1753C5.373 12.6738 6.34508 12.9355 7.33448 12.9334C8.44205 12.9334 9.52475 12.6049 10.4457 11.9896C11.3666 11.3743 12.0843 10.4997 12.5082 9.47639C12.9321 8.45313 13.0429 7.32716 12.8269 6.24086C12.6108 5.15457 12.0774 4.15675 11.2943 3.37357C10.5111 2.5904 9.51328 2.05705 8.42698 1.84098C7.34069 1.6249 6.21472 1.7358 5.19145 2.15965C4.16819 2.5835 3.29359 3.30126 2.67825 4.22218C2.06292 5.14309 1.73448 6.22579 1.73448 7.33337C1.73244 8.32307 1.99437 9.29541 2.49328 10.1502L2.78868 10.657L2.33158 12.3377L4.01158 11.8792ZM0.337283 14.3334L1.28368 10.8558C0.659954 9.78682 0.332316 8.57098 0.334483 7.33337C0.334483 3.46727 3.46838 0.333374 7.33448 0.333374C11.2006 0.333374 14.3345 3.46727 14.3345 7.33337C14.3345 11.1995 11.2006 14.3334 7.33448 14.3334C6.09741 14.3355 4.88209 14.0081 3.81348 13.3849L0.337283 14.3334ZM4.80818 4.04897C4.90245 4.04244 4.99648 4.0415 5.09028 4.04617C5.12808 4.04897 5.16588 4.0527 5.20368 4.05737C5.31498 4.06997 5.43748 4.13787 5.47878 4.23167C5.68738 4.70534 5.88991 5.18134 6.08638 5.65967C6.12978 5.76607 6.10388 5.90257 6.02128 6.03557C5.97928 6.10347 5.91348 6.19867 5.83718 6.29597C5.75808 6.39747 5.58798 6.58367 5.58798 6.58367C5.58798 6.58367 5.51868 6.66627 5.54528 6.76917C5.55508 6.80837 5.58728 6.86507 5.61668 6.91267L5.65798 6.97917C5.83718 7.27807 6.07798 7.58117 6.37198 7.86677C6.45598 7.94797 6.53788 8.03127 6.62608 8.10897C6.95368 8.39807 7.32468 8.63397 7.72508 8.80897L7.72858 8.81037C7.78808 8.83627 7.81818 8.85027 7.90498 8.88737C7.94838 8.90557 7.99294 8.92097 8.03868 8.93357C8.05548 8.93823 8.07251 8.9408 8.08978 8.94127C8.12969 8.94279 8.16937 8.93453 8.20537 8.9172C8.24136 8.89988 8.27257 8.87401 8.29628 8.84187C8.80238 8.22867 8.84928 8.18877 8.85278 8.18877V8.19017C8.88793 8.15725 8.92976 8.13228 8.97541 8.11694C9.02106 8.1016 9.06948 8.09626 9.11738 8.10127C9.16031 8.10313 9.20161 8.11247 9.24128 8.12927C9.61298 8.29937 10.2213 8.56467 10.2213 8.56467L10.6287 8.74737C10.6973 8.78027 10.7596 8.85797 10.7617 8.93287C10.7645 8.97977 10.7687 9.05537 10.7526 9.19397C10.7302 9.37527 10.6756 9.59297 10.621 9.70707C10.5831 9.78467 10.5335 9.85597 10.474 9.91847C10.4033 9.99257 10.326 10.06 10.243 10.1201C10.1851 10.163 10.1559 10.184 10.1555 10.1831C10.0684 10.2383 9.97897 10.2897 9.88738 10.3371C9.70706 10.4326 9.50805 10.4875 9.30428 10.4981C9.17478 10.5051 9.04528 10.5149 8.91508 10.5079C8.90948 10.5079 8.51748 10.447 8.51748 10.447C7.52227 10.1851 6.60188 9.69475 5.82948 9.01477C5.67128 8.87547 5.52428 8.72567 5.37448 8.57657C4.75288 7.95707 4.28178 7.28857 3.99548 6.65717C3.85023 6.34723 3.77154 6.01029 3.76448 5.66807C3.76185 5.24299 3.90102 4.82917 4.15998 4.49207C4.21108 4.42627 4.25938 4.35767 4.34268 4.27857C4.43088 4.19457 4.48758 4.14977 4.54848 4.11897C4.62971 4.07907 4.7179 4.0553 4.80818 4.04897Z" fill="#25D366"/>
</svg>
