<svg width="417" height="291" viewBox="0 0 417 291" fill="none" xmlns="http://www.w3.org/2000/svg">
<path d="M345.651 161.414L345.088 169.81C344.839 173.95 347.133 179.252 350.292 181.995L354.255 185.201C366.078 194.933 363.611 206.361 348.703 210.452L342.368 212.15C338.139 213.38 333.6 217.797 332.283 221.933L331.465 224.674C325.88 242.563 313.992 243.808 304.992 227.597L303.003 224.153C300.638 220.034 294.901 216.721 290.151 216.733L286.174 216.732C267.453 217.092 262.654 206.059 275.468 192.344L277.433 190.266C280.356 187.057 281.912 180.918 280.863 176.64L279.232 170.19C275.321 155.234 283.984 147.383 298.324 152.756L303.082 154.585C306.856 155.999 312.776 155.285 316.237 153L323.226 148.314C336.578 139.499 346.676 145.329 345.651 161.414Z" fill="white"/>
<path d="M321.468 258.682C315.615 259.281 300.845 258.098 289.224 240.066C287.918 238.088 285.689 236.648 283.257 236.621C274.795 236.173 268.033 234.105 263.329 231.388C255.985 227.148 252.477 221.298 251.013 218.005C248.556 212.455 244.707 198.452 258.604 181.537C260.074 179.785 260.627 177.503 260.226 175.283C257.542 161.646 260.204 146.965 268.801 139.23C272.135 136.106 272.64 129.666 268.738 127.413L197.939 86.537C163.514 66.662 130.627 70.6242 107.439 110.786L61.0645 191.11C37.877 231.272 50.8891 261.734 85.3136 281.609L200.062 347.859C234.487 367.734 267.374 363.772 290.561 323.61L325.21 263.597C326.469 261.416 324.033 258.48 321.468 258.682ZM225.255 233.733C214.171 235.442 202.809 232.861 193.17 227.296C183.531 221.731 175.5 213.116 171.553 202.728L152.199 153.305C150.25 148.202 152.856 142.362 157.845 140.347C162.948 138.397 168.739 140.822 170.688 145.926L190.042 195.349C194.722 207.384 209.524 215.93 222.286 213.966C227.681 213.102 232.743 216.79 233.54 222.299C234.518 227.759 230.764 232.936 225.255 233.733Z" fill="white"/>
</svg>
