<svg width="60" height="12" viewBox="0 0 60 12" fill="none" xmlns="http://www.w3.org/2000/svg">
<path d="M2.87066 8C2.92566 7.755 2.82566 7.405 2.65066 7.23L1.43566 6.015C1.05566 5.635 0.905662 5.23 1.01566 4.88C1.13066 4.53 1.48566 4.29 2.01566 4.2L3.57566 3.94C3.80066 3.9 4.07566 3.7 4.18066 3.495L5.04066 1.77C5.29066 1.275 5.63066 1 6.00066 1C6.37066 1 6.71066 1.275 6.96066 1.77L7.82066 3.495C7.88566 3.625 8.02066 3.75 8.16566 3.835L2.78066 9.22C2.71066 9.29 2.59066 9.225 2.61066 9.125L2.87066 8Z" fill="#FF9E48"/>
<path d="M9.35039 7.22999C9.17039 7.40999 9.07039 7.75499 9.13039 7.99999L9.47539 9.50499C9.62039 10.13 9.53039 10.6 9.22039 10.825C9.09539 10.915 8.94539 10.96 8.77039 10.96C8.51539 10.96 8.21539 10.865 7.88539 10.67L6.42039 9.79999C6.19039 9.66499 5.81039 9.66499 5.58039 9.79999L4.11539 10.67C3.56039 10.995 3.08539 11.05 2.78039 10.825C2.66539 10.74 2.58039 10.625 2.52539 10.475L8.60539 4.39499C8.83539 4.16499 9.16039 4.05999 9.47539 4.11499L9.98039 4.19999C10.5104 4.28999 10.8654 4.52999 10.9804 4.87999C11.0904 5.22999 10.9404 5.63499 10.5604 6.01499L9.35039 7.22999Z" fill="#FF9E48"/>
<path d="M18.8707 8C18.9257 7.755 18.8257 7.405 18.6507 7.23L17.4357 6.015C17.0557 5.635 16.9057 5.23 17.0157 4.88C17.1307 4.53 17.4857 4.29 18.0157 4.2L19.5757 3.94C19.8007 3.9 20.0757 3.7 20.1807 3.495L21.0407 1.77C21.2907 1.275 21.6307 1 22.0007 1C22.3707 1 22.7107 1.275 22.9607 1.77L23.8207 3.495C23.8857 3.625 24.0207 3.75 24.1657 3.835L18.7807 9.22C18.7107 9.29 18.5907 9.225 18.6107 9.125L18.8707 8Z" fill="#FF9E48"/>
<path d="M25.3504 7.22999C25.1704 7.40999 25.0704 7.75499 25.1304 7.99999L25.4754 9.50499C25.6204 10.13 25.5304 10.6 25.2204 10.825C25.0954 10.915 24.9454 10.96 24.7704 10.96C24.5154 10.96 24.2154 10.865 23.8854 10.67L22.4204 9.79999C22.1904 9.66499 21.8104 9.66499 21.5804 9.79999L20.1154 10.67C19.5604 10.995 19.0854 11.05 18.7804 10.825C18.6654 10.74 18.5804 10.625 18.5254 10.475L24.6054 4.39499C24.8354 4.16499 25.1604 4.05999 25.4754 4.11499L25.9804 4.19999C26.5104 4.28999 26.8654 4.52999 26.9804 4.87999C27.0904 5.22999 26.9404 5.63499 26.5604 6.01499L25.3504 7.22999Z" fill="#FF9E48"/>
<path d="M34.8707 8C34.9257 7.755 34.8257 7.405 34.6507 7.23L33.4357 6.015C33.0557 5.635 32.9057 5.23 33.0157 4.88C33.1307 4.53 33.4857 4.29 34.0157 4.2L35.5757 3.94C35.8007 3.9 36.0757 3.7 36.1807 3.495L37.0407 1.77C37.2907 1.275 37.6307 1 38.0007 1C38.3707 1 38.7107 1.275 38.9607 1.77L39.8207 3.495C39.8857 3.625 40.0207 3.75 40.1657 3.835L34.7807 9.22C34.7107 9.29 34.5907 9.225 34.6107 9.125L34.8707 8Z" fill="#FF9E48"/>
<path d="M41.3504 7.22999C41.1704 7.40999 41.0704 7.75499 41.1304 7.99999L41.4754 9.50499C41.6204 10.13 41.5304 10.6 41.2204 10.825C41.0954 10.915 40.9454 10.96 40.7704 10.96C40.5154 10.96 40.2154 10.865 39.8854 10.67L38.4204 9.79999C38.1904 9.66499 37.8104 9.66499 37.5804 9.79999L36.1154 10.67C35.5604 10.995 35.0854 11.05 34.7804 10.825C34.6654 10.74 34.5804 10.625 34.5254 10.475L40.6054 4.39499C40.8354 4.16499 41.1604 4.05999 41.4754 4.11499L41.9804 4.19999C42.5104 4.28999 42.8654 4.52999 42.9804 4.87999C43.0904 5.22999 42.9404 5.63499 42.5604 6.01499L41.3504 7.22999Z" fill="#FF9E48"/>
<path d="M50.8707 8C50.9257 7.755 50.8257 7.405 50.6507 7.23L49.4357 6.015C49.0557 5.635 48.9057 5.23 49.0157 4.88C49.1307 4.53 49.4857 4.29 50.0157 4.2L51.5757 3.94C51.8007 3.9 52.0757 3.7 52.1807 3.495L53.0407 1.77C53.2907 1.275 53.6307 1 54.0007 1C54.3707 1 54.7107 1.275 54.9607 1.77L55.8207 3.495C55.8857 3.625 56.0207 3.75 56.1657 3.835L50.7807 9.22C50.7107 9.29 50.5907 9.225 50.6107 9.125L50.8707 8Z" fill="#FF9E48"/>
<path d="M57.3504 7.22999C57.1704 7.40999 57.0704 7.75499 57.1304 7.99999L57.4754 9.50499C57.6204 10.13 57.5304 10.6 57.2204 10.825C57.0954 10.915 56.9454 10.96 56.7704 10.96C56.5154 10.96 56.2154 10.865 55.8854 10.67L54.4204 9.79999C54.1904 9.66499 53.8104 9.66499 53.5804 9.79999L52.1154 10.67C51.5604 10.995 51.0854 11.05 50.7804 10.825C50.6654 10.74 50.5804 10.625 50.5254 10.475L56.6054 4.39499C56.8354 4.16499 57.1604 4.05999 57.4754 4.11499L57.9804 4.19999C58.5104 4.28999 58.8654 4.52999 58.9804 4.87999C59.0904 5.22999 58.9404 5.63499 58.5604 6.01499L57.3504 7.22999Z" fill="#FF9E48"/>
</svg>
