<svg width="10" height="10" viewBox="0 0 10 10" fill="none" xmlns="http://www.w3.org/2000/svg">
<path d="M4.99967 0.833252C2.70384 0.833252 0.833008 2.70409 0.833008 4.99992C0.833008 7.29575 2.70384 9.16659 4.99967 9.16659C7.29551 9.16659 9.16634 7.29575 9.16634 4.99992C9.16634 2.70409 7.29551 0.833252 4.99967 0.833252ZM6.99134 4.04159L4.62884 6.40409C4.57051 6.46242 4.49134 6.49575 4.40801 6.49575C4.32467 6.49575 4.24551 6.46242 4.18717 6.40409L3.00801 5.22492C2.88717 5.10409 2.88717 4.90409 3.00801 4.78325C3.12884 4.66242 3.32884 4.66242 3.44967 4.78325L4.40801 5.74159L6.54967 3.59992C6.67051 3.47909 6.87051 3.47909 6.99134 3.59992C7.11217 3.72075 7.11217 3.91659 6.99134 4.04159Z" fill="white"/>
</svg>
