<svg width="1080" height="1080" viewBox="0 0 1080 1080" fill="none" xmlns="http://www.w3.org/2000/svg">
  <defs>
    <linearGradient id="bgS" x1="0" y1="0" x2="1" y2="1">
      <stop offset="0%" stop-color="#0F172A" />
      <stop offset="100%" stop-color="#0A1022" />
    </linearGradient>
    <linearGradient id="ribbonS" x1="0" y1="0" x2="1" y2="0">
      <stop offset="0%" stop-color="#FF7BA5" />
      <stop offset="100%" stop-color="#FF5C8D" />
    </linearGradient>
    <radialGradient id="haloS" cx="50%" cy="50%" r="0.75">
      <stop offset="0%" stop-color="#6CE5B1" stop-opacity="0.45" />
      <stop offset="100%" stop-color="#6CE5B1" stop-opacity="0" />
    </radialGradient>
  </defs>
  <rect width="1080" height="1080" fill="url(#bgS)" />
  <circle cx="360" cy="340" r="280" fill="url(#haloS)" />
  <path d="M-40 360 C260 300 520 360 820 280 C980 240 1140 260 1200 220 L1200 460 L-40 560 Z" fill="url(#ribbonS)" opacity="0.95" />
  <path d="M-20 720 C260 660 520 720 800 660 C980 620 1120 640 1160 600 L1160 840 L-20 920 Z" fill="#FF5C8D" opacity="0.55" />
  <g stroke="#6DD3FF" stroke-width="3" stroke-linecap="round" opacity="0.7">
    <path d="M160 220 C360 260 460 200 640 240" />
    <path d="M840 780 C960 740 1040 780 1160 740" />
    <path d="M180 860 L520 760" />
    <path d="M760 320 L1040 260" />
  </g>
  <g fill="#F4EDE1" opacity="0.75">
    <circle cx="200" cy="800" r="6" />
    <circle cx="240" cy="840" r="4" />
    <circle cx="940" cy="420" r="5" />
    <circle cx="1000" cy="480" r="3" />
    <circle cx="780" cy="960" r="6" />
  </g>
</svg>
